<?xml version="1.0" encoding="UTF-8"?>
<svg id="Layer_1" xmlns="http://www.w3.org/2000/svg" version="1.1" viewBox="0 0 21.4 21.4">
  <!-- Generator: Adobe Illustrator 30.0.0, SVG Export Plug-In . SVG Version: 2.1.1 Build 123)  -->
  <defs>
    <style>
      .st0 {
        fill: #7f7f7f;
      }
    </style>
  </defs>
  <path class="st0" d="M18.8,21.3H7.6c-1.4,0-2.5-1.1-2.5-2.5V7.6c0-1.4,1.1-2.5,2.5-2.5h11.2c1.4,0,2.5,1.1,2.5,2.5v11.2c0,1.4-1.1,2.5-2.5,2.5ZM7.6,6.8c-.5,0-.8.4-.8.8v11.2c0,.5.4.8.8.8h11.2c.5,0,.8-.4.8-.8V7.6c0-.5-.4-.8-.8-.8H7.6ZM3.5,14.7h-.8c-.5,0-.8-.4-.8-.8V2.7c0-.5.4-.8.8-.8h11.2c.5,0,.8.4.8.8v.8h1.6v-.8c0-1.4-1.1-2.5-2.5-2.5H2.7C1.3.2.2,1.3.2,2.7v11.2c0,1.4,1.1,2.5,2.5,2.5h.8v-1.6Z"/>
</svg>